{"asset":{"version":"2.0","generator":"THREE.GLTFExporter"},"scenes":[{"nodes":[0],"name":"AuxScene"}],"scene":0,"nodes":[{"mesh":0}],"bufferViews":[{"buffer":0,"byteOffset":0,"byteLength":3888,"target":34962,"byteStride":12},{"buffer":0,"byteOffset":3888,"byteLength":3888,"target":34962,"byteStride":12}],"buffers":[{"byteLength":7776,"uri":"data:application/octet-stream;base64,"}],"accessors":[{"bufferView":0,"componentType":5126,"count":324,"max":[14.399999618530273,5.199999809265137,7.403841018676758],"min":[-4.400000095367432,0,-8.496159553527832],"type":"VEC3"},{"bufferView":1,"componentType":5126,"count":324,"max":[0.749268651008606,1,0.8682425022125244],"min":[-0.8682430982589722,0.4508339464664459,-0.813733696937561],"type":"VEC3"}],"materials":[{"pbrMetallicRoughness":{"baseColorFactor":[0.5019607843137255,0.5019607843137255,0.5019607843137255,1],"metallicFactor":0,"roughnessFactor":1}}],"meshes":[{"primitives":[{"mode":4,"attributes":{"POSITION":0,"NORMAL":1},"material":0}]}]}